<?xml version="1.0" standalone="no"?><!DOCTYPE svg PUBLIC "-//W3C//DTD SVG 1.1//EN" "http://www.w3.org/Graphics/SVG/1.1/DTD/svg11.dtd"><svg t="1760450158804" class="icon" viewBox="0 0 1024 1024" version="1.1" xmlns="http://www.w3.org/2000/svg" p-id="5422" xmlns:xlink="http://www.w3.org/1999/xlink" width="200" height="200"><path d="M691.808 288.512l-3.2 16.672c-4.96 31.616-3.168 40.672 10.4 52.384l13.088 10.848-13.568 60.512c-8.096 36.096-18.048 66.336-24.352 76.288-5.408 8.576-11.744 21.216-13.088 28-2.272 8.096-9.952 16.256-21.664 23.456-10.368 5.888-30.72 21.664-45.152 34.336-11.52 10.368-19.456 16.736-23.776 19.456l-14.08 11.136c-4.512 7.264-7.072 13.088-8.064 17.536-0.992 4.576-0.416 7.584 1.024 9.824 1.408 2.144 3.84 3.616 7.168 4.576a40.128 40.128 0 0 0 12.16 0.992h-0.128c9.888-0.704 19.072-2.4 27.872-5.024l-0.896 0.224c2.976-0.8 5.344-1.568 7.392-2.272 3.168-3.872 10.464-11.232 23.392-23.968 34.304-33.824 47.392-52.352 33.888-47.36-4.992 1.792-2.72-2.72 5.856-11.776 18.08-17.632 28.448-44.256 50.144-127.744 17.152-65.92 17.152-66.848 29.792-66.848 5.92 0 22.688 1.024 22.688 1.024V288.512h-38.496z m163.776 135.04c-2.72 0-7.264 4.096-9.952 8.608-4.96 8.096 0.896 13.056 75.392 59.552 44.256 28.032 79.904 51.936 79.008 53.76-0.896 1.312-37.024 24.832-80.352 51.936-78.592 48.736-79.008 49.184-71.808 59.136 9.056 11.744 0 15.776 102.016-47.872l74.08-47.392v-35.68l-82.656-51.04c-44.672-28-83.488-50.56-85.76-51.04z m-686.272 4.992c-2.272 0-41.088 23.04-85.76 50.56L0 530.144v35.68l83.072 51.936c46.08 28.416 84.896 51.936 86.688 51.936s5.408-4.096 9.056-9.056c5.408-8.576 0.864-12.192-75.424-60.512C30.72 554.528 23.04 548.192 30.304 543.264c4.512-3.168 38.816-24.416 75.872-47.392 84.448-51.936 79.904-48.352 73.12-59.168-2.688-4.48-7.264-8.544-9.984-8.096z m370.496 0.992c-12.448-0.096-39.264 18.912-119.456 84.384-3.456 8.224-3.744 13.92-2.176 17.568a10.56 10.56 0 0 0 5.504 5.536c2.56 1.28 5.888 2.048 9.568 2.336 7.296 0.64 15.904-0.512 22.88-1.888l4.704-1.056a16.576 16.576 0 0 1 6.048-4.992l0.096-0.032c4.96-2.72 25.728-21.664 46.496-41.984 36.576-37.024 45.152-53.76 30.24-59.168a10.304 10.304 0 0 0-3.776-0.736h-0.096z m93.696 25.728c-10.976 0.288-30.72 13.024-64.544 40.032-16.992 13.792-27.744 21.216-33.504 22.752l-22.368 17.664c-8.416 15.36-9.632 24.864-7.424 30.112a10.784 10.784 0 0 0 5.824 5.696l0.064 0.032c2.976 1.216 6.464 1.92 10.08 1.92h0.16c8.864-0.096 17.344-1.408 25.408-3.808l-0.672 0.16c5.248-1.408 9.376-2.752 13.44-4.256l-1.024 0.32 1.248-0.512 2.272-1.184c4.256-5.504 14.08-15.872 26.368-27.808 38.816-37.472 58.656-64.096 54.624-74.016-1.824-4.832-4.992-7.264-9.952-7.072z m-103.424 46.08c-3.168 0.352-10.24 5.792-23.008 16.992-18.432 16.288-38.528 25.696-45.472 21.504a51.648 51.648 0 0 1-3.776 0.832l-1.088 0.192a90.56 90.56 0 0 1-23.808 1.92 30.784 30.784 0 0 1-10.944-2.752l0.192 0.064a14.528 14.528 0 0 1-7.136-7.168l-0.032-0.096c-1.568-3.84-1.568-8.608 0.224-14.72l-27.744 22.784-62.752 51.936v84.192l205.664-162.016v-0.384c0-1.728 0.256-3.392 0.704-4.992l-0.032 0.128c1.568-5.728 1.504-8.608-0.992-8.416z m88.512 27.264c-3.104 0-8.32 4.384-16.64 13.216-11.296 12.064-29.088 23.776-38.528 26.144l-1.44 0.768a70.912 70.912 0 0 1-4.032 1.6l-0.64 0.192c-2.56 0.864-5.888 1.888-9.728 2.912-7.68 2.08-17.248 4-25.76 3.808a31.52 31.52 0 0 1-11.936-2.368l0.192 0.064a14.72 14.72 0 0 1-7.808-7.584l-0.032-0.096c-2.464-5.92-1.504-14.24 3.936-26.08l-181.408 142.88v51.424h79.712l169.056-132.768c4.384-4.864 11.008-11.52 19.936-19.84 23.904-22.144 29.312-29.792 29.312-41.088 0-8.8-0.992-13.216-4.096-13.184z m40.224 83.2l-14.464 14.432c-8.096 7.68-22.56 17.152-32.48 21.216l-1.952 0.864-0.128 0.224-0.416 0.416c-0.384 0.288-0.544 0.352-0.864 0.48a118.368 118.368 0 0 1-11.008 3.712l-1.024 0.256a125.44 125.44 0 0 1-27.328 4.896l-0.416 0.032a44.096 44.096 0 0 1-13.536-1.216l0.288 0.064a15.584 15.584 0 0 1-9.28-6.112l-0.032-0.032c-2.048-3.168-2.656-7.392-1.504-12.576a46.08 46.08 0 0 1 4.192-10.912l-0.128 0.256-136.416 107.776h181.408l21.664-24.832c29.792-34.72 43.36-59.552 43.36-80.8z" fill="#DB7093" p-id="5423"></path></svg>